Run_30001
nRows=4
nColumns=161

# SIMM Motion File Header:
name Run_30001
datacolumns 161
datarows 4
otherdata 1
range 1.35833300 1.38333300
endheader
time	pelvis_tilt	pelvis_list	pelvis_rotation	pelvis_tx	pelvis_ty	pelvis_tz	hip_flexion_r	hip_adduction_r	hip_rotation_r	knee_angle_r	ankle_angle_r	hip_flexion_l	hip_adduction_l	hip_rotation_l	knee_angle_l	ankle_angle_l	lumbar_extension	lumbar_bending	lumbar_rotation	arm_flex_r	arm_add_r	arm_rot_r	elbow_flex_r	pro_sup_r	arm_flex_l	arm_add_l	arm_rot_l	elbow_flex_l	pro_sup_l	subtalar_angle_r	mtp_angle_r	subtalar_angle_l	mtp_angle_l	wrist_flex_r	wrist_dev_r	wrist_flex_l	wrist_dev_l	LASI_tx	LASI_ty	LASI_tz	RASI_tx	RASI_ty	RASI_tz	LPSI_tx	LPSI_ty	LPSI_tz	RPSI_tx	RPSI_ty	RPSI_tz	RTH1_tx	RTH1_ty	RTH1_tz	RTH3_tx	RTH3_ty	RTH3_tz	LTH1_tx	LTH1_ty	LTH1_tz	LTH2_tx	LTH2_ty	LTH2_tz	LTH3_tx	LTH3_ty	LTH3_tz	RTB1_tx	RTB1_ty	RTB1_tz	RTB2_tx	RTB2_ty	RTB2_tz	RTB3_tx	RTB3_ty	RTB3_tz	LTB1_tx	LTB1_ty	LTB1_tz	LTB2_tx	LTB2_ty	LTB2_tz	LTB3_tx	LTB3_ty	LTB3_tz	RCAL_tx	RCAL_ty	RCAL_tz	RTOE_tx	RTOE_ty	RTOE_tz	RMT5_tx	RMT5_ty	RMT5_tz	LCAL_tx	LCAL_ty	LCAL_tz	LTOE_tx	LTOE_ty	LTOE_tz	LMT5_tx	LMT5_ty	LMT5_tz	LACR_tx	LACR_ty	LACR_tz	RACR_tx	RACR_ty	RACR_tz	CLAV_tx	CLAV_ty	CLAV_tz	C7_tx	C7_ty	C7_tz	RUA1_tx	RUA1_ty	RUA1_tz	RUA2_tx	RUA2_ty	RUA2_tz	RUA3_tx	RUA3_ty	RUA3_tz	RLEL_tx	RLEL_ty	RLEL_tz	RMEL_tx	RMEL_ty	RMEL_tz	LUA1_tx	LUA1_ty	LUA1_tz	LUA2_tx	LUA2_ty	LUA2_tz	LUA3_tx	LUA3_ty	LUA3_tz	LLEL_tx	LLEL_ty	LLEL_tz	LMEL_tx	LMEL_ty	LMEL_tz	RFAsuperior_tx	RFAsuperior_ty	RFAsuperior_tz	RFAradius_tx	RFAradius_ty	RFAradius_tz	RFAulna_tx	RFAulna_ty	RFAulna_tz	LFAsuperior_tx	LFAsuperior_ty	LFAsuperior_tz	LFAradius_tx	LFAradius_ty	LFAradius_tz	LFAulna_tx	LFAulna_ty	LFAulna_tz
      1.35833300	     -2.86522394	     -3.95272781	     -6.70445280	      0.87218311	      0.93250771	     -0.27698688	     23.58650537	     13.56681675	      6.12341881	    -46.25392982	     19.96610797	     20.90607507	     -6.43243508	     -5.14169210	   -104.20664168	     -2.60244485	    -12.48686049	      6.95007209	      3.21924982	    -23.77128307	    -23.38061455	      0.42420326	     77.80426092	    105.51509380	    -26.91685756	    -15.22591202	      3.10054547	    101.65158883	    112.82864202	      0.00000000	      0.00000000	      0.00000000	      0.00000000	      0.00000000	      0.00000000	      0.00000000	      0.00000000	      0.89713418	      0.95400460	     -0.39453067	      0.87437230	      0.96194788	     -0.16338645	      0.73345025	      0.99370115	     -0.34417648	      0.71190435	      0.99850237	     -0.24702088	      0.83243120	      0.79823746	     -0.10772405	      0.89997502	      0.55203056	     -0.17447265	      0.86773287	      0.76822791	     -0.46016971	      0.94288804	      0.67017473	     -0.45252677	      0.89236178	      0.55375071	     -0.44339159	      0.93606200	      0.33200811	     -0.25694911	      0.88342588	      0.28298017	     -0.19408232	      0.87255041	      0.22585949	     -0.26731927	      0.83238066	      0.41108748	     -0.34798559	      0.74057901	      0.43769658	     -0.44495263	      0.65176300	      0.39416312	     -0.37799205	      0.70674389	      0.10627912	     -0.27080205	      0.90967079	      0.06951889	     -0.30272551	      0.89200723	      0.06086406	     -0.20622259	      0.50792331	      0.48782320	     -0.36458396	      0.50245673	      0.28030639	     -0.36182231	      0.48597589	      0.30178815	     -0.44986972	      0.89794322	      1.41930016	     -0.45770141	      0.86699746	      1.39174487	     -0.06257986	      0.94263898	      1.39864482	     -0.23382826	      0.82859873	      1.46949804	     -0.27547190	      0.79162837	      1.26543523	     -0.02328586	      0.71933039	      1.27171625	     -0.04376504	      0.73917327	      1.19456812	      0.00187219	      0.69730882	      1.13739955	      0.02107013	      0.66629376	      1.12135508	     -0.05303343	      0.81912073	      1.30271555	     -0.51906776	      0.74305425	      1.27362975	     -0.51271170	      0.79661871	      1.21652837	     -0.53547643	      0.73643264	      1.15779823	     -0.56250825	      0.68943606	      1.16280251	     -0.48987848	      0.78623086	      1.04658493	      0.00497091	      0.85590891	      0.97015031	     -0.05950556	      0.82054833	      0.93024423	     -0.01308277	      0.83624882	      1.08198950	     -0.52157630	      0.90729586	      1.06114882	     -0.42992669	      0.90514858	      1.00968927	     -0.47111353
      1.36666700	     -2.98511497	     -3.80482230	     -6.54802508	      0.87036941	      0.93264678	     -0.27659880	     21.87381843	     13.30398885	      6.28138042	    -45.98395803	     21.21704737	     23.78763600	     -6.37396034	     -4.57332326	   -104.71735104	     -1.43650686	    -12.58906959	      6.59241787	      4.23161783	    -22.04779477	    -23.34131987	      0.71233082	     78.66577518	    105.63102687	    -27.81141189	    -15.40316795	      3.06641108	    101.30692710	    113.11209106	      0.00000000	      0.00000000	      0.00000000	      0.00000000	      0.00000000	      0.00000000	      0.00000000	      0.00000000	      0.89473237	      0.95492306	     -0.39414276	      0.87296357	      0.96157778	     -0.16301438	      0.73141841	      0.99421564	     -0.34294560	      0.71003437	      0.99918776	     -0.24571291	      0.82596581	      0.79841384	     -0.10683228	      0.88856437	      0.54935044	     -0.17398778	      0.86863213	      0.76963730	     -0.45985638	      0.95184064	      0.67574727	     -0.45210373	      0.90680907	      0.55761263	     -0.44318418	      0.91749575	      0.32766527	     -0.25727070	      0.86442048	      0.27909426	     -0.19506902	      0.85057385	      0.22348656	     -0.26726635	      0.85102409	      0.41250811	     -0.34784421	      0.75943412	      0.43593565	     -0.44495768	      0.67138840	      0.39086921	     -0.37741962	      0.68167779	      0.10703251	     -0.27075252	      0.88434031	      0.06932619	     -0.30315012	      0.86661013	      0.06080318	     -0.20615159	      0.52233042	      0.47843666	     -0.36614074	      0.52954995	      0.27099525	     -0.36215195	      0.51221531	      0.29090278	     -0.45033332	      0.89469015	      1.41944898	     -0.45810605	      0.87079701	      1.39262732	     -0.06290057	      0.94269951	      1.39860020	     -0.23558184	      0.82826005	      1.46988399	     -0.27507991	      0.79885487	      1.26485361	     -0.02209526	      0.72608589	      1.26819486	     -0.04222439	      0.74948787	      1.19209033	      0.00346013	      0.71012335	      1.13357957	      0.02352744	      0.67690976	      1.11677823	     -0.04956837	      0.81266359	      1.30500887	     -0.51881862	      0.73628699	      1.27751419	     -0.50971751	      0.78821283	      1.21976479	     -0.53538755	      0.72667216	      1.16225401	     -0.56179260	      0.68194524	      1.16701095	     -0.48800698	      0.80168608	      1.04579707	      0.00411752	      0.87215545	      0.97208953	     -0.06225223	      0.83944756	      0.93050719	     -0.01513109	      0.82536557	      1.08312443	     -0.52302512	      0.89745885	      1.05973886	     -0.43282442	      0.89324623	      1.00873698	     -0.47452612
      1.37500000	     -3.08827097	     -3.59936405	     -6.29880429	      0.86915529	      0.93392950	     -0.27646974	     19.87394090	     12.92910444	      6.55432014	    -45.23745802	     22.18189005	     26.46935661	     -6.14485510	     -4.00518670	   -104.59869506	     -0.35167053	    -12.60294487	      6.18533167	      5.16951052	    -20.71649881	    -23.29594044	      0.83494672	     80.07324835	    105.11576793	    -28.86746204	    -15.72275038	      3.18217047	    101.45188776	    113.27269160	      0.00000000	      0.00000000	      0.00000000	      0.00000000	      0.00000000	      0.00000000	      0.00000000	      0.00000000	      0.89259618	      0.95683871	     -0.39439816	      0.87199842	      0.96193997	     -0.16278159	      0.72981943	      0.99564989	     -0.34188551	      0.70899422	      1.00071561	     -0.24451868	      0.82063281	      0.79899447	     -0.10641808	      0.87669661	      0.54783198	     -0.17304126	      0.87010494	      0.77249551	     -0.45966564	      0.95984652	      0.68301454	     -0.45121664	      0.92044686	      0.56366357	     -0.44278340	      0.89764990	      0.32467024	     -0.25801634	      0.84465538	      0.27653132	     -0.19602000	      0.82813492	      0.22203683	     -0.26696744	      0.86913569	      0.41445329	     -0.34828670	      0.77778625	      0.43481476	     -0.44438484	      0.69078984	      0.38735855	     -0.37639440	      0.65656534	      0.10787049	     -0.27055883	      0.85901702	      0.06938527	     -0.30339082	      0.84119178	      0.06069259	     -0.20606870	      0.53647235	      0.46715407	     -0.36734264	      0.55760766	      0.26060301	     -0.36230397	      0.53913913	      0.27888700	     -0.45050310	      0.89127385	      1.42106848	     -0.45844171	      0.87478054	      1.39508587	     -0.06324276	      0.94275463	      1.39984932	     -0.23745317	      0.82800349	      1.47172553	     -0.27459608	      0.80595481	      1.26591608	     -0.02124802	      0.73273874	      1.26674923	     -0.04049262	      0.75914818	      1.19176821	      0.00469858	      0.72211682	      1.13213237	      0.02528918	      0.68722264	      1.11465391	     -0.04699227	      0.80616465	      1.30899421	     -0.51864692	      0.72956665	      1.28299952	     -0.50779758	      0.77995890	      1.22457261	     -0.53545355	      0.71684107	      1.16836236	     -0.56120307	      0.67410096	      1.17321674	     -0.48642062	      0.81637449	      1.04775044	      0.00268361	      0.88823182	      0.97743494	     -0.06561059	      0.85792485	      0.93386060	     -0.01858642	      0.81426118	      1.08643787	     -0.52427265	      0.88789925	      1.06142985	     -0.43500098	      0.88164997	      1.01088397	     -0.47721990
      1.38333300	     -3.17301404	     -3.31521005	     -6.07352164	      0.86834445	      0.93640170	     -0.27631736	     17.55401315	     12.47542110	      7.09469774	    -43.92641770	     22.81434421	     28.90257995	     -5.80927311	     -3.57053421	   -103.83472697	      0.61767123	    -12.56488482	      5.66812460	      6.14288309	    -19.69299792	    -23.22183988	      0.82534591	     81.87051468	    104.08140204	    -30.00226191	    -16.20230812	      3.40410230	    102.01227361	    113.28141882	      0.00000000	      0.00000000	      0.00000000	      0.00000000	      0.00000000	      0.00000000	      0.00000000	      0.00000000	      0.89091270	      0.95979788	     -0.39502651	      0.87098969	      0.96334205	     -0.16231032	      0.72880945	      0.99823775	     -0.34095238	      0.70808403	      1.00349570	     -0.24310163	      0.81648630	      0.79991835	     -0.10661808	      0.86373553	      0.54730103	     -0.17231396	      0.87212463	      0.77676182	     -0.45946685	      0.96676295	      0.69167036	     -0.45005298	      0.93290431	      0.57145059	     -0.44216506	      0.87675768	      0.32287911	     -0.25883042	      0.82369528	      0.27537802	     -0.19676898	      0.80546024	      0.22146152	     -0.26668915	      0.88658164	      0.41687663	     -0.34931963	      0.79552667	      0.43442201	     -0.44334937	      0.71026653	      0.38314941	     -0.37512567	      0.63144075	      0.10879198	     -0.27019649	      0.83376356	      0.06960222	     -0.30328115	      0.81578750	      0.06053092	     -0.20597525	      0.55060840	      0.45400648	     -0.36815642	      0.58658165	      0.24935885	     -0.36222860	      0.56691347	      0.26597317	     -0.45036244	      0.88767873	      1.42405577	     -0.45875482	      0.87893481	      1.39893454	     -0.06374712	      0.94285142	      1.40236146	     -0.23934335	      0.82771141	      1.47468359	     -0.27409015	      0.81300235	      1.26843015	     -0.02083338	      0.73932425	      1.26749962	     -0.03848791	      0.76817724	      1.19336310	      0.00560952	      0.73328436	      1.13271607	      0.02651322	      0.69737898	      1.11469414	     -0.04524340	      0.79977512	      1.31443437	     -0.51846917	      0.72298983	      1.28987827	     -0.50686947	      0.77190287	      1.23070380	     -0.53564337	      0.70714226	      1.17582317	     -0.56067144	      0.66599312	      1.18112715	     -0.48511524	      0.83021144	      1.05208500	      0.00087183	      0.90377939	      0.98587420	     -0.06944337	      0.87565472	      0.94004313	     -0.02320618	      0.80335721	      1.09193570	     -0.52537956	      0.87894693	      1.06585422	     -0.43663604	      0.87065382	      1.01575726	     -0.47936096
